HIERARCHY
ROOT hip
{
  OFFSET 0 0 0
  CHANNELS 6 Xposition Yposition Zposition Zrotation Yrotation Xrotation
  JOINT abdomen
  {
    OFFSET 0 20.6881 -0.73152
    CHANNELS 3 Zrotation Xrotation Yrotation
    JOINT chest
    {
      OFFSET 0 11.7043 -0.48768
      CHANNELS 3 Zrotation Xrotation Yrotation
      JOINT neck
      {
        OFFSET 0 22.1894 -2.19456
        CHANNELS 3 Zrotation Xrotation Yrotation
        JOINT head
        {
          OFFSET -0.24384 7.07133 1.2192
          CHANNELS 3 Zrotation Xrotation Yrotation
          JOINT leftEye
          {
            OFFSET 4.14528 8.04674 8.04672
            CHANNELS 3 Zrotation Xrotation Yrotation
            End Site
            {
              OFFSET 1 0 0
            }
          }
          JOINT rightEye
          {
            OFFSET -3.6576 8.04674 8.04672
            CHANNELS 3 Zrotation Xrotation Yrotation
            End Site
            {
              OFFSET 1 0 0
            }
          }
        }
      }
      JOINT rCollar
      {
        OFFSET -2.68224 19.2634 -4.8768
        CHANNELS 3 Zrotation Xrotation Yrotation
        JOINT rShldr
        {
          OFFSET -8.77824 -1.95073 1.46304
          CHANNELS 3 Zrotation Xrotation Yrotation
          JOINT rForeArm
          {
            OFFSET -28.1742 -1.7115 0.48768
            CHANNELS 3 Zrotation Xrotation Yrotation
            JOINT rHand
            {
              OFFSET -22.5879 0.773209 7.07136
              CHANNELS 3 Zrotation Xrotation Yrotation
              JOINT rThumb1
              {
                OFFSET -1.2192 -0.487915 3.41376
                CHANNELS 3 Zrotation Xrotation Yrotation
                JOINT rThumb2
                {
                  OFFSET -3.37035 -0.52449 3.41376
                  CHANNELS 3 Zrotation Xrotation Yrotation
                  End Site
                  {
                    OFFSET -1.78271 -1.18214 1.43049
                  }
                }
              }
              JOINT rIndex1
              {
                OFFSET -7.75947 0.938293 5.60832
                CHANNELS 3 Zrotation Xrotation Yrotation
                JOINT rIndex2
                {
                  OFFSET -2.54057 -0.884171 1.56538
                  CHANNELS 3 Zrotation Xrotation Yrotation
                  End Site
                  {
                    OFFSET -1.62519 -0.234802 1.16502
                  }
                }
              }
              JOINT rMid1
              {
                OFFSET -8.24714 1.18213 3.41376
                CHANNELS 3 Zrotation Xrotation Yrotation
                JOINT rMid2
                {
                  OFFSET -3.10165 -0.590103 1.0647
                  CHANNELS 3 Zrotation Xrotation Yrotation
                  End Site
                  {
                    OFFSET -2.48547 -0.328903 0.83742
                  }
                }
              }
              JOINT rRing1
              {
                OFFSET -8.82822 0.546677 1.51678
                CHANNELS 3 Zrotation Xrotation Yrotation
                JOINT rRing2
                {
                  OFFSET -2.60934 -0.819778 -0.0198488
                  CHANNELS 3 Zrotation Xrotation Yrotation
                  End Site
                  {
                    OFFSET -2.33842 -0.294052 0.168128
                  }
                }
              }
              JOINT rPinky1
              {
                OFFSET -8.27202 -0.0477905 -0.4584
                CHANNELS 3 Zrotation Xrotation Yrotation
                JOINT rPinky2
                {
                  OFFSET -1.82734 -0.647385 -0.700984
                  CHANNELS 3 Zrotation Xrotation Yrotation
                  End Site
                  {
                    OFFSET -1.69225 -0.51767 -0.607171
                  }
                }
              }
            }
          }
        }
      }
      JOINT lCollar
      {
        OFFSET 2.68224 19.2634 -4.8768
        CHANNELS 3 Zrotation Xrotation Yrotation
        JOINT lShldr
        {
          OFFSET 8.77824 -1.95073 1.46304
          CHANNELS 3 Zrotation Xrotation Yrotation
          JOINT lForeArm
          {
            OFFSET 28.1742 -1.7115 0.48768
            CHANNELS 3 Zrotation Xrotation Yrotation
            JOINT lHand
            {
              OFFSET 22.5879 0.773209 7.07136
              CHANNELS 3 Zrotation Xrotation Yrotation
              JOINT lThumb1
              {
                OFFSET 1.2192 -0.487915 3.41376
                CHANNELS 3 Zrotation Xrotation Yrotation
                JOINT lThumb2
                {
                  OFFSET 3.37035 -0.52449 3.41376
                  CHANNELS 3 Zrotation Xrotation Yrotation
                  End Site
                  {
                    OFFSET 1.78271 -1.18214 1.43049
                  }
                }
              }
              JOINT lIndex1
              {
                OFFSET 7.75947 0.938293 5.60832
                CHANNELS 3 Zrotation Xrotation Yrotation
                JOINT lIndex2
                {
                  OFFSET 2.54057 -0.884171 1.56538
                  CHANNELS 3 Zrotation Xrotation Yrotation
                  End Site
                  {
                    OFFSET 1.62519 -0.234802 1.16502
                  }
                }
              }
              JOINT lMid1
              {
                OFFSET 8.24714 1.18213 3.41376
                CHANNELS 3 Zrotation Xrotation Yrotation
                JOINT lMid2
                {
                  OFFSET 3.10165 -0.590103 1.0647
                  CHANNELS 3 Zrotation Xrotation Yrotation
                  End Site
                  {
                    OFFSET 2.48547 -0.328903 0.83742
                  }
                }
              }
              JOINT lRing1
              {
                OFFSET 8.82822 0.546677 1.51678
                CHANNELS 3 Zrotation Xrotation Yrotation
                JOINT lRing2
                {
                  OFFSET 2.60934 -0.819778 -0.0198488
                  CHANNELS 3 Zrotation Xrotation Yrotation
                  End Site
                  {
                    OFFSET 2.33842 -0.294052 0.168128
                  }
                }
              }
              JOINT lPinky1
              {
                OFFSET 8.27202 -0.0477905 -0.4584
                CHANNELS 3 Zrotation Xrotation Yrotation
                JOINT lPinky2
                {
                  OFFSET 1.82734 -0.647385 -0.700984
                  CHANNELS 3 Zrotation Xrotation Yrotation
                  End Site
                  {
                    OFFSET 1.69225 -0.51767 -0.607171
                  }
                }
              }
            }
          }
        }
      }
    }
  }
  JOINT rButtock
  {
    OFFSET -8.77824 4.35084 1.2192
    CHANNELS 3 Zrotation Xrotation Yrotation
    JOINT rThigh
    {
      OFFSET 0 -1.70687 -2.19456
      CHANNELS 3 Zrotation Xrotation Yrotation
      JOINT rShin
      {
        OFFSET 0 -36.8199 0.73152
        CHANNELS 3 Zrotation Xrotation Yrotation
        JOINT rFoot
        {
          OFFSET 0.73152 -45.1104 -5.12064
          CHANNELS 3 Zrotation Xrotation Yrotation
          End Site
          {
            OFFSET -1.1221 -3.69964 12.103
          }
        }
      }
    }
  }
  JOINT lButtock
  {
    OFFSET 8.77824 4.35084 1.2192
    CHANNELS 3 Zrotation Xrotation Yrotation
    JOINT lThigh
    {
      OFFSET 0 -1.70687 -2.19456
      CHANNELS 3 Zrotation Xrotation Yrotation
      JOINT lShin
      {
        OFFSET 0 -36.8199 0.73152
        CHANNELS 3 Zrotation Xrotation Yrotation
        JOINT lFoot
        {
          OFFSET -0.73152 -45.1104 -5.12064
          CHANNELS 3 Zrotation Xrotation Yrotation
          End Site
          {
            OFFSET 1.1221 -3.69964 12.103
          }
        }
      }
    }
  }
}
MOTION
Frames:	7
Frame Time:	0.03333
0.0 0.0 0.0 0.0 0.0 0.0 0.0 0.0 0.0 0.0 0.0 0.0 0.0 0.0 0.0 0.0 0.0 0.0 0.0 0.0 0.0 0.0 0.0 0.0 0.0 0.0 0.0 0.0 0.0 0.0 0.0 0.0 0.0 0.0 0.0 0.0 0.0 0.0 0.0 0.0 0.0 0.0 0.0 0.0 0.0 0.0 0.0 0.0 0.0 0.0 0.0 0.0 0.0 0.0 0.0 0.0 0.0 0.0 0.0 0.0 0.0 0.0 0.0 0.0 0.0 0.0 0.0 0.0 0.0 0.0 0.0 0.0 0.0 0.0 0.0 0.0 0.0 0.0 0.0 0.0 0.0 0.0 0.0 0.0 0.0 0.0 0.0 0.0 0.0 0.0 0.0 0.0 0.0 0.0 0.0 0.0 0.0 0.0 0.0 0.0 0.0 0.0 0.0 0.0 0.0 0.0 0.0 0.0 0.0 0.0 0.0 0.0 0.0 0.0 0.0 0.0 0.0 0.0 0.0 0.0 0.0 0.0 0.0 0.0 0.0 0.0 0.0 0.0 0.0 0.0 0.0 0.0
-0.0364 62.613 -0.1437 179.935383 -81.892051 179.449123 -0.3205 3.812952 -0.0 11.191021 -1.557077 -80.477412 -11.172419 -8.835185 -91.82566 46.586441 15.274966 86.48994 3.963744 -0.98072 -27.784347 53.896719 -3.261145 -6.409683 -85.782715 -25.794897 157.166394 1.353849 15.624276 14.679969 19.829335 74.788828 152.859687 173.205773 -3.081841 76.714163 2.108732 -12.895474 39.141749 84.070483 3.615744 -125.017875 -83.164099 -8.141612 -133.218918 -103.997134 -55.288222 172.680199 -44.777646 31.06709 -114.022063 -60.575055 -56.515181 -154.926383 5.095119 10.909813 -83.127179 -138.020987 6.481244 169.210814 39.216375 9.08835 -62.514342 -35.518958 -37.222849 -28.286611 76.586369 -1.701381 -163.215684 -8.041134 12.765081 -5.861706 -7.979593 0.934662 -169.176723 -177.213432 0.479618 -100.425289 176.024594 4.115866 -68.550244 94.150712 4.978171 -42.625521 92.238537 -2.67291 -66.275691 119.169861 81.12958 -114.932937 56.03726 46.341723 -31.907733 66.363113 72.726462 23.503388 -85.768617 11.171158 84.003231 -36.864268 -8.951689 -2.767807 132.492327 39.05881 69.296089 19.395309 -43.125056 16.144487 -54.072052 -0.450402 -89.811825 -0.057036 52.708212 -179.928307 -5.035403 -1.837354 -77.908029 -73.872036 12.88044 95.563121 45.484817 -31.151817 63.90099 1.936504 54.383541 -1.552047 3.577323 4.757978 145.446919 -75.224081 17.197119 89.138081
0.588 62.3257 2.4163 136.160954 -80.647023 -135.688171 -13.33677 21.543072 4.45069 9.179217 -15.918007 -8.171832 -18.074842 27.872196 -19.724748 34.984231 -29.328395 8.765624 -11.605048 2.906832 -28.037604 -3.905686 -0.068224 2.000703 -156.596007 -5.687854 153.033676 170.481787 -14.198294 178.873034 -101.398588 25.661664 59.690737 80.395244 -68.940969 65.856428 -172.109196 -2.44962 86.788715 90.266016 -68.34899 53.475219 -158.863223 -21.316413 127.860601 4.459197 13.485441 -11.533606 -144.868272 31.63749 113.980796 -0.730947 13.359522 38.979152 -3.355873 13.253402 -0.060058 -150.840063 20.85339 141.560338 -152.769379 55.987529 -156.847141 -158.905367 63.361183 -160.568381 35.516111 65.536946 -37.621668 -21.237316 21.834576 -70.899376 35.753521 -55.237632 -49.419478 -0.800787 -43.01979 -0.326619 6.094051 0.034443 10.325956 -133.882785 -84.536318 -26.325946 29.690303 43.637082 -12.156619 168.900976 8.523205 -97.04303 2.748238 25.936785 -0.498832 164.539337 -68.24609 -161.500208 139.595533 9.461949 -175.574628 -8.715913 12.738782 -4.855168 34.428551 -77.730599 13.456742 146.029497 -55.347399 56.476474 68.039382 23.244959 28.756317 -129.02641 -14.875949 112.487547 42.485363 -64.93568 -84.248322 -78.477164 33.651823 9.397018 134.233313 63.537275 16.577281 -118.603087 31.222931 55.341184 67.552389 -3.436622 107.359135 80.495144 23.983201 156.913343
1.5556 60.954699999999995 4.0678 150.336468 -74.811628 -151.939279 -13.333734 20.00091 -112.999916 5.923571 12.347601 115.038636 12.417212 38.77927 120.197602 -44.22468 36.977343 -135.242891 -18.737374 2.924976 -17.592788 -0.78233 -0.220701 31.507859 -155.095152 -4.213934 164.398546 -25.714913 -11.049309 -13.345858 -80.232353 -29.659747 -107.292045 31.355814 -49.837464 24.277613 7.2598 -6.073368 4.07217 -130.612534 -11.623758 109.914411 0.751706 25.3875 -17.907784 -175.419724 17.354232 86.571714 1.439167 -26.351067 2.963842 -60.993027 -75.631567 -118.594679 -145.212008 2.247069 -170.632807 19.893585 42.662124 -22.187908 1.046603 -24.211041 -7.545391 0.949631 21.416095 -0.776223 45.260315 63.45513 -48.057043 80.097008 7.274841 -115.559307 -5.792532 16.40812 128.614895 168.685306 10.775776 -138.677247 124.774752 36.697245 -77.403058 32.105283 -37.124017 -12.296272 158.223876 -17.492631 -128.065123 147.943816 18.971868 -137.330478 -44.785823 -65.409773 -35.753811 16.707913 45.926098 -0.483891 49.679967 71.229781 -85.887767 35.179086 -61.064058 46.091576 114.754755 -50.474802 103.153869 69.4245 73.649846 -92.528767 -139.922897 73.080066 -41.33051 143.92436 8.751783 -101.796211 -65.458869 -18.909011 103.433153 -60.809548 -1.593192 20.337856 -0.053133 16.065171 0.192001 14.89202 -24.951256 180.0 19.540301 -52.766934 147.054412 159.250682 -69.934933 -114.417887
1.8533000000000002 60.6352 5.1865000000000006 159.944584 -69.474393 -161.659498 -10.03764 15.712142 -161.039234 -4.206806 6.913902 165.671787 5.943235 30.941665 111.520766 -36.888642 23.673222 -136.097137 4.700713 0.270345 6.579413 -6.554097 0.117065 -2.044313 0.308562 -44.307273 -10.271595 56.398309 10.712234 -6.939187 -16.374784 23.991913 49.916575 -6.811847 24.855578 7.421853 -112.061878 32.926135 74.505045 -89.53383 -1.699163 51.323828 -112.338279 33.965541 105.754156 -13.976467 53.538558 7.215386 -156.189772 -34.368393 148.775716 -53.654998 45.022731 52.95911 -136.563217 4.419919 -175.647753 -156.572537 -28.543316 172.481241 18.730213 27.411493 -7.970149 -10.732478 2.48497 14.917868 35.516448 -87.773393 60.046166 -87.91948 41.002409 93.368908 -147.909065 -10.278191 -40.269812 152.083538 44.502467 -128.248151 6.64534 8.739255 4.666745 67.09287 21.9927 -62.132428 -46.506705 -71.466708 -6.15941 -0.571452 48.152267 -11.251409 17.421188 4.808716 -5.584085 -12.233606 -26.073632 14.117789 5.396873 -9.823711 -1.675439 -9.66429 29.900628 -13.067032 77.854332 -52.6086 71.067857 46.293682 -73.03065 35.578495 -169.111029 68.271626 -11.699637 152.818116 2.195886 93.553671 64.143345 7.157246 -144.343825 81.575663 43.348905 -1.629752 -24.008491 9.190065 -12.545322 37.000019 -9.322651 57.998899 39.866698 40.327471 -69.571005 -84.833642 -63.734366 0.053529
2.8318 59.2692 6.5864 168.754468 -66.486504 -168.587445 -4.154669 19.487101 1.224704 2.493181 -10.199896 -2.061115 -11.709257 17.250968 -20.866491 17.171917 -21.006354 -4.374356 6.463952 1.474344 25.672262 -14.300257 2.751981 -21.679523 -8.565681 12.082408 13.568351 44.00073 13.603925 34.69985 148.899696 22.377525 119.115688 174.295393 -14.254132 150.507472 119.010127 -49.772004 48.242119 -94.535568 20.814952 46.498818 19.353699 -15.049178 9.298525 -16.177737 67.558332 5.526344 -157.519007 -51.715717 140.405876 -165.395685 -10.06298 115.902983 -115.790798 4.724042 -176.721844 74.714231 86.640567 -39.547079 10.156012 17.675034 -15.110425 -132.15809 -63.618061 -140.942962 155.532295 -28.96607 -168.909009 -139.534402 -3.751854 169.795278 12.752593 -9.652327 -87.257423 6.128239 -26.60823 7.015261 -2.3725 1.629109 -1.262692 36.560835 -77.517066 86.703914 137.205839 3.714371 -119.678399 16.444555 71.85796 0.735207 166.392135 -6.460567 -140.810841 42.572298 63.918722 -36.062863 130.692584 -35.179784 151.416428 -46.778776 40.775816 14.016574 4.052128 -43.69825 -1.985296 139.509887 -38.078405 99.481123 7.022121 6.580299 -0.0 -56.150007 -65.104257 121.315528 17.181169 -52.122392 -125.547978 -71.685558 20.664469 12.497807 149.208761 69.986527 18.941498 -140.351818 53.098807 -180.0 -54.254716 -53.345497 -83.66911 -101.439263 -36.368102 173.802612
4.5821000000000005 59.5139 8.3001 171.685838 -63.921095 -171.187798 -2.854772 16.949339 -136.248347 3.248405 6.802615 132.170768 -14.416079 32.977272 -110.550936 37.174517 22.744227 79.742345 3.900911 1.317959 37.32414 -15.996406 7.024817 -47.195339 89.088115 -79.28551 67.913773 -168.728658 35.215494 -145.936658 124.434653 15.267129 151.306462 -172.725301 17.795893 149.772512 -33.94549 30.055581 20.440661 29.719049 -41.500284 -8.068661 -52.987879 27.882458 44.023319 74.087472 -35.840126 15.105745 -147.417559 -13.79893 135.40319 -170.302789 -22.63061 118.20545 -117.774162 1.636338 -177.602164 -143.387694 -20.682875 -165.592243 -118.941421 -8.628937 -99.202334 -103.205651 4.843978 -107.171225 -2.313531 -39.71307 15.293002 27.904915 -58.341006 84.839268 4.948149 -37.967592 122.965089 172.916544 -7.907412 -139.22508 168.561238 -9.075617 -80.557047 -3.898428 -23.666755 -40.375941 -11.60063 -22.038114 3.532103 177.030422 -9.703181 -91.370548 154.540435 -8.939806 -138.530246 -27.974783 -67.574433 4.491274 136.088884 20.085136 175.630778 163.478675 49.818311 156.326142 62.253901 52.045888 -114.740474 -66.712436 3.889814 -3.225607 9.639279 -2.693369 -12.14149 -12.591614 -63.851228 -91.404209 -53.738307 -0.572288 -156.617832 -89.808921 -40.49032 170.82533 80.563515 47.025885 38.427715 -91.28344 19.295394 -176.210516 -54.454382 -27.580614 145.436303 127.318081 -24.228541 -6.20862
